<?xml version="1.0" encoding="UTF-8"?><svg id="a" xmlns="http://www.w3.org/2000/svg" xmlns:xlink="http://www.w3.org/1999/xlink" viewBox="0 0 1920 1080"><defs><style>.o{fill:url(#c);filter:url(#d);}.p{fill:#74d3ff;}.q{fill:url(#l);filter:url(#m);}.r{clip-path:url(#b);}.s{fill:url(#i);filter:url(#j);}.t{fill:none;}.u{fill:url(#f);filter:url(#g);}</style><clipPath id="b"><rect class="t" width="1920" height="1080"/></clipPath><linearGradient id="c" x1="929" y1="30" x2="929" y2="510" gradientTransform="translate(8.1 -26.47) rotate(1.64)" gradientUnits="userSpaceOnUse"><stop offset="0" stop-color="#d5f2ff" stop-opacity=".83"/><stop offset=".11" stop-color="#c3ecff" stop-opacity=".86"/><stop offset=".46" stop-color="#98deff" stop-opacity=".93"/><stop offset=".77" stop-color="#7dd6ff" stop-opacity=".98"/><stop offset="1" stop-color="#74d3ff"/></linearGradient><filter id="d" filterUnits="userSpaceOnUse"><feOffset dx="5" dy="5"/><feGaussianBlur result="e" stdDeviation="20"/><feFlood flood-color="#000" flood-opacity=".1"/><feComposite in2="e" operator="in"/><feComposite in="SourceGraphic"/></filter><linearGradient id="f" x1="948.5" y1="162" x2="948.5" y2="872" gradientUnits="userSpaceOnUse"><stop offset="0" stop-color="#e4f7ff"/><stop offset=".04" stop-color="#dbf4ff"/><stop offset=".24" stop-color="#b6e8ff"/><stop offset=".43" stop-color="#99deff"/><stop offset=".63" stop-color="#84d8ff"/><stop offset=".82" stop-color="#78d4ff"/><stop offset="1" stop-color="#74d3ff"/></linearGradient><filter id="g" filterUnits="userSpaceOnUse"><feOffset dx="5" dy="5"/><feGaussianBlur result="h" stdDeviation="20"/><feFlood flood-color="#000" flood-opacity=".1"/><feComposite in2="h" operator="in"/><feComposite in="SourceGraphic"/></filter><linearGradient id="i" x1="893.5" y1="363" x2="893.5" y2="1220" gradientUnits="userSpaceOnUse"><stop offset="0" stop-color="#f2fbff"/><stop offset=".27" stop-color="#e1f5ff"/><stop offset=".81" stop-color="#b7e8ff"/><stop offset="1" stop-color="#a6e3ff"/></linearGradient><filter id="j" filterUnits="userSpaceOnUse"><feOffset dx="5" dy="5"/><feGaussianBlur result="k" stdDeviation="20"/><feFlood flood-color="#000" flood-opacity=".1"/><feComposite in2="k" operator="in"/><feComposite in="SourceGraphic"/></filter><linearGradient id="l" x1="2310.94" y1="567.94" x2="2310.94" y2="1424.94" gradientTransform="translate(3239.88 2106.87) rotate(-180)" gradientUnits="userSpaceOnUse"><stop offset="0" stop-color="#fff"/><stop offset=".91" stop-color="#fff"/><stop offset="1" stop-color="#fff"/></linearGradient><filter id="m" filterUnits="userSpaceOnUse"><feOffset dx="5" dy="5"/><feGaussianBlur result="n" stdDeviation="20"/><feFlood flood-color="#000" flood-opacity=".1"/><feComposite in2="n" operator="in"/><feComposite in="SourceGraphic"/></filter></defs><g class="r"><rect class="p" x="-51" y="-55" width="2000" height="1165"/><path class="o" d="m1832.5,55.76c-65.81-1.88-124.09,33.24-154.86,86.52-32.5-27.78-74.34-45.06-120.4-46.38-42.08-1.2-81.4,11.09-113.84,32.94-30.66-37.74-76.96-62.41-129.38-63.91-40.31-1.15-77.8,11.58-107.87,33.86-35.43-38.61-85.82-63.42-142.34-65.04-81.65-2.34-153.31,44.36-186.75,113.4-28.72-18.41-62.65-29.5-99.24-30.55-66.6-1.91-126.32,29.9-162.82,79.95-25.28-21.13-57.58-34.24-93.06-35.25-32.7-.94-63.29,8.53-88.58,25.4-33.94-48.86-89.83-81.52-153.86-83.36-58.17-1.66-111.08,22.46-147.79,62-27.83-24.06-63.8-39.05-103.44-40.18-91.37-2.61-167.55,69.33-170.17,160.7S-72.56,453.42,18.81,456.04c39.88,1.14,76.86-11.92,106.1-34.6,34.38,41.24,85.61,68.1,143.5,69.76,58.9,1.69,112.41-23.07,149.16-63.5,25.65,22.44,58.96,36.44,95.69,37.49,39.57,1.13,76.03-12.97,103.78-36.98,34.36,45.46,88.28,75.49,149.67,77.25,76.99,2.2,144.81-40.65,178.16-104.66,30.69,20.96,67.55,33.66,107.46,34.8,58.82,1.68,112.47-22.08,150.36-61.32,28.06,21.93,63.12,35.42,101.45,36.52,29.78.85,58.02-5.88,82.86-18.43,33.24,53.28,91.67,89.45,159.15,91.39,80.35,2.3,150.68-44.6,182.1-113.39,26.79,18.81,59.19,30.26,94.36,31.27,95.51,2.73,175.15-72.47,177.88-167.98,2.73-95.51-72.47-175.15-167.98-177.88Z"/><path class="u" d="m1986,443c0-91.13-73.87-165-165-165s-159.84,68.84-164.73,155.58c-19.49-8.1-40.86-12.58-63.27-12.58-24.51,0-47.77,5.35-68.68,14.94-40.84-82.89-126.17-139.94-224.82-139.94-56.77,0-109.12,18.9-151.13,50.73-27.18-53.82-82.96-90.73-147.37-90.73-56.87,0-107.02,28.77-136.69,72.56-24.45-14.33-52.92-22.56-83.31-22.56-23.68,0-46.18,5-66.53,13.98-19.5-90.3-99.83-157.98-195.97-157.98-84.61,0-156.97,52.41-186.41,126.53-18.07-6.8-37.64-10.53-58.09-10.53-78.81,0-144.71,55.26-161.08,129.15-11.87-2.71-24.23-4.15-36.92-4.15-91.13,0-165,73.87-165,165s73.87,165,165,165c34.22,0,66.01-10.42,92.36-28.26,35.76,54.93,97.7,91.26,168.14,91.26,54.98,0,104.78-22.13,141-57.97,36.22,35.83,86.02,57.97,141,57.97,40.65,0,78.46-12.11,110.06-32.9,36.3,36.38,86.49,58.9,141.94,58.9,38.91,0,75.23-11.1,105.98-30.28,35.63,32.48,83.01,52.28,135.02,52.28s99.66-19.92,135.33-52.57c16.87,3.61,34.37,5.54,52.31,5.56,36.75,45.73,93.13,75,156.36,75s120.6-29.78,157.32-76.2c35.35,31.23,81.8,50.2,132.68,50.2,110.73,0,200.5-89.77,200.5-200.5,0-27.91-5.71-54.48-16.01-78.63,34.34-30.24,56.01-74.52,56.01-123.87Z"/><path class="s" d="m1838,512c-64.55,0-123.14,25.49-166.28,66.95-34.57-66.51-104.09-111.95-184.22-111.95-84.83,0-157.76,50.91-189.93,123.84-35.58-28.67-80.82-45.84-130.07-45.84-78.49,0-146.8,43.59-182.05,107.87-28.82-22.48-65.07-35.87-104.45-35.87-31.55,0-61.08,8.6-86.4,23.58-36.39-91.72-125.92-156.58-230.6-156.58-71.72,0-136.32,30.46-181.6,79.13-31.18-37.94-78.46-62.13-131.4-62.13-27.71,0-53.86,6.63-76.98,18.39-33.95-91.32-121.88-156.39-225.02-156.39-132.55,0-240,107.45-240,240,0,113.1,78.23,207.9,183.53,233.3-20.67,35.46-32.53,76.69-32.53,120.7,0,132.55,107.45,240,240,240,61.71,0,117.98-23.3,160.5-61.58,42.52,38.27,98.79,61.58,160.5,61.58,75.79,0,143.36-35.14,187.34-90,42.4,67.85,117.75,113,203.66,113,93.84,0,175.09-53.86,214.55-132.36,42.74,39.33,99.79,63.36,162.45,63.36,79.2,0,149.43-38.37,193.14-97.53,39.01,27.42,86.55,43.53,137.86,43.53,92.57,0,172.88-52.42,212.92-129.18,31.74,15.48,67.39,24.18,105.08,24.18,132.55,0,240-107.45,240-240s-107.45-240-240-240Z"/><path class="q" d="m-15.56,1389.94c64.55,0,123.14-25.49,166.28-66.95,34.57,66.51,104.09,111.95,184.22,111.95,84.83,0,157.76-50.91,189.93-123.84,35.58,28.67,80.82,45.84,130.07,45.84,78.49,0,146.8-43.59,182.05-107.87,28.82,22.48,65.07,35.87,104.45,35.87,31.55,0,61.08-8.6,86.4-23.58,36.39,91.72,125.92,156.58,230.6,156.58,71.72,0,136.32-30.46,181.6-79.13,31.18,37.94,78.46,62.13,131.4,62.13,27.71,0,53.86-6.63,76.98-18.39,33.95,91.32,121.88,156.39,225.02,156.39,132.55,0,240-107.45,240-240,0-113.1-78.23-207.9-183.53-233.3,20.67-35.46,32.53-76.69,32.53-120.7,0-132.55-107.45-240-240-240-61.71,0-117.98,23.3-160.5,61.58-42.52-38.27-98.79-61.58-160.5-61.58-75.79,0-143.36,35.14-187.34,90-42.4-67.85-117.75-113-203.66-113-93.84,0-175.09,53.86-214.55,132.36-42.74-39.33-99.79-63.36-162.45-63.36-79.2,0-149.43,38.37-193.14,97.53-39.01-27.42-86.55-43.53-137.86-43.53-92.57,0-172.88,52.42-212.92,129.18-31.74-15.48-67.39-24.18-105.08-24.18-132.55,0-240,107.45-240,240s107.45,240,240,240Z"/></g></svg>