<?xml version="1.0" encoding="utf-8"?>
<!-- Generator: Adobe Illustrator 27.5.0, SVG Export Plug-In . SVG Version: 6.00 Build 0)  -->
<svg version="1.1" baseProfile="tiny" id="Layer_1" xmlns="http://www.w3.org/2000/svg" xmlns:xlink="http://www.w3.org/1999/xlink"
	 x="0px" y="0px" viewBox="0 0 512 512" overflow="visible" xml:space="preserve">
<path fill="#FFE100" d="M506,256.93v-1.85C505.5,117.43,393.77,6,256.01,6c-138.07,0-250,111.93-250,250s111.93,250,250,250
	C393.77,506,505.5,394.57,506,256.93z"/>
<path fill="#FFFFFF" d="M263.34,318.49c-0.02,0-0.05,0-0.07,0c-1.48-37.24-32.12-66.97-69.72-66.97c-28.65,0-53.25,17.27-64,41.96
	c-6.53-4.84-14.61-7.7-23.36-7.7c-21.69,0-39.28,17.59-39.28,39.28c0,6.27,1.48,12.19,4.09,17.45
	c-22.87,9.2-39.02,31.57-39.02,57.73c0,34.36,27.85,62.21,62.21,62.21h169.14c39.75,0,71.98-32.23,71.98-71.98
	C335.32,350.72,303.09,318.49,263.34,318.49z"/>
<path fill="#FFFFFF" d="M347.31,205.08c0.02,0,0.03,0,0.05,0c1.05-26.51,22.86-47.67,49.63-47.67c20.39,0,37.91,12.29,45.56,29.87
	c4.65-3.44,10.4-5.48,16.63-5.48c15.44,0,27.96,12.52,27.96,27.96c0,4.46-1.05,8.68-2.91,12.42c16.28,6.55,27.77,22.47,27.77,41.09
	c0,24.46-19.83,44.29-44.29,44.29h-120.4c-28.3,0-51.24-22.94-51.24-51.24C296.08,228.02,319.02,205.08,347.31,205.08z"/>
<path fill="#FFFFFF" d="M226.47,102.34c-0.01,0-0.03,0-0.04,0c-0.9-22.61-19.5-40.66-42.33-40.66c-17.39,0-32.33,10.48-38.86,25.48
	c-3.96-2.94-8.87-4.68-14.18-4.68c-13.17,0-23.85,10.68-23.85,23.85c0,3.81,0.9,7.4,2.48,10.59C95.81,122.5,86,136.09,86,151.97
	c0,20.86,16.91,37.77,37.77,37.77h102.7c24.14,0,43.7-19.57,43.7-43.7C270.17,121.91,250.61,102.34,226.47,102.34z"/>
</svg>
