<?xml version="1.0" encoding="UTF-8"?><svg id="a" xmlns="http://www.w3.org/2000/svg" xmlns:xlink="http://www.w3.org/1999/xlink" viewBox="0 0 400 400"><defs><style>.d{fill:#fff;}.e{fill:#ffe800;}.f{fill:#74d3ff;stroke:#fff;stroke-miterlimit:10;stroke-width:22px;}.g{filter:url(#b);}</style><filter id="b" filterUnits="userSpaceOnUse"><feOffset dx="10" dy="10"/><feGaussianBlur result="c" stdDeviation="20"/><feFlood flood-color="#386b77" flood-opacity=".6"/><feComposite in2="c" operator="in"/><feComposite in="SourceGraphic"/></filter></defs><g class="g"><circle class="e" cx="220.84" cy="162.96" r="86.15" transform="translate(11.5 340.45) rotate(-76.72)"/><path class="d" d="m220.84,87.81c41.44,0,75.15,33.71,75.15,75.15s-33.71,75.15-75.15,75.15-75.15-33.71-75.15-75.15,33.71-75.15,75.15-75.15m0-22c-53.65,0-97.15,43.49-97.15,97.15s43.49,97.15,97.15,97.15,97.15-43.49,97.15-97.15-43.49-97.15-97.15-97.15h0Z"/><path class="f" d="m128.57,318.19c-38.97,0-70.57-31.6-70.57-70.57,0-38.97,31.6-70.57,70.57-70.57,9.34,0,18.25,1.83,26.41,5.13,13.68-12.02,31.61-19.31,51.25-19.31,28.37,0,53.17,15.21,66.73,37.92,3.23-.54,6.53-.84,9.91-.84,32.65,0,59.13,26.47,59.13,59.13,0,32.65-26.47,59.13-59.13,59.13h-154.3Z"/></g></svg>