<?xml version="1.0" encoding="utf-8"?>
<!-- Generator: Adobe Illustrator 27.5.0, SVG Export Plug-In . SVG Version: 6.00 Build 0)  -->
<svg version="1.1" baseProfile="tiny" id="Layer_1" xmlns="http://www.w3.org/2000/svg" xmlns:xlink="http://www.w3.org/1999/xlink"
	 x="0px" y="0px" viewBox="0 0 512 512" overflow="visible" xml:space="preserve">
<g>
	<path fill="#FFE100" d="M506,256.93v-1.85C505.5,117.43,393.77,6,256.01,6c-138.07,0-250,111.93-250,250s111.93,250,250,250
		C393.77,506,505.5,394.57,506,256.93z"/>
	<path fill="#FFFFFF" d="M211.01,337.77c-0.02,0-0.04,0-0.06,0c-1.16-29.16-25.16-52.46-54.61-52.46
		c-22.44,0-41.71,13.53-50.13,32.86c-5.11-3.79-11.44-6.03-18.29-6.03c-16.99,0-30.76,13.77-30.76,30.76c0,4.91,1.16,9.55,3.2,13.67
		c-17.91,7.2-30.56,24.73-30.56,45.21c0,26.91,21.82,48.73,48.73,48.73h132.48c31.14,0,56.38-25.24,56.38-56.38
		C267.39,363.01,242.15,337.77,211.01,337.77z"/>
</g>
</svg>
