<?xml version="1.0" encoding="utf-8"?>
<!-- Generator: Adobe Illustrator 27.5.0, SVG Export Plug-In . SVG Version: 6.00 Build 0)  -->
<svg version="1.1" baseProfile="tiny" id="Layer_1" xmlns="http://www.w3.org/2000/svg" xmlns:xlink="http://www.w3.org/1999/xlink"
	 x="0px" y="0px" viewBox="0 0 512 512" overflow="visible" xml:space="preserve">
<g>
	<path fill="#99CCFF" d="M176.19,426.48c0,43.8-35.51,79.31-79.31,79.31s-79.31-35.51-79.31-79.31c0-20.95,28.14-72.34,47.07-120.26
		c20.65-52.28,32.24-100.43,32.24-100.43s11.59,48.15,32.24,100.43C148.05,354.14,176.19,405.53,176.19,426.48z"/>
	<path fill="#FFFFFF" d="M157.39,450.58c-5.46,24.17-38.07,38.62-38.07,38.62s20.08-24.31,24.48-42s3.52-55.6,3.52-55.6
		S165.52,414.6,157.39,450.58z"/>
	<path fill="#99CCFF" d="M494.43,360.32c0,43.8-35.51,79.31-79.31,79.31s-79.31-35.51-79.31-79.31c0-20.95,28.14-72.34,47.07-120.26
		c20.65-52.28,32.24-100.43,32.24-100.43s11.59,48.15,32.24,100.43C466.29,287.98,494.43,339.37,494.43,360.32z"/>
	<path fill="#FFFFFF" d="M475.63,384.43c-5.46,24.17-38.07,38.62-38.07,38.62s20.08-24.31,24.48-42c4.4-17.69,3.52-55.6,3.52-55.6
		S483.77,348.45,475.63,384.43z"/>
	<path fill="#99CCFF" d="M307.98,226.9c0,43.8-35.51,79.31-79.31,79.31s-79.31-35.51-79.31-79.31c0-20.95,28.14-72.34,47.07-120.26
		C217.08,54.36,228.67,6.21,228.67,6.21s11.59,48.15,32.24,100.43C279.84,154.56,307.98,205.96,307.98,226.9z"/>
	<path fill="#FFFFFF" d="M289.18,251.01c-5.46,24.17-38.07,38.62-38.07,38.62s20.08-24.31,24.48-42c4.4-17.69,3.52-55.6,3.52-55.6
		S297.31,215.03,289.18,251.01z"/>
</g>
</svg>
