<?xml version="1.0" encoding="UTF-8"?><svg id="a" xmlns="http://www.w3.org/2000/svg" viewBox="0 0 214 214"><defs><style>.b{fill:#fff;}.c{fill:#ffe800;}.d{fill:#646464;}</style></defs><rect class="b" width="214" height="214" rx="10.37" ry="10.37"/><circle class="c" cx="116.77" cy="95.14" r="54.91" transform="translate(4.15 195.16) rotate(-80.78)"/><path class="d" d="m116.77,45.23c27.52,0,49.91,22.39,49.91,49.91s-22.39,49.91-49.91,49.91-49.91-22.39-49.91-49.91,22.39-49.91,49.91-49.91m0-10c-33.09,0-59.91,26.82-59.91,59.91s26.82,59.91,59.91,59.91,59.91-26.82,59.91-59.91-26.82-59.91-59.91-59.91h0Z"/><path class="b" d="m101.72,173.77c-15.68,0-29.73-.21-41.78-.64h-7.71c-15.25,0-27.66-12.81-27.66-28.55s12.41-28.55,27.66-28.55c2.06,0,4.14.24,6.19.73l4.43,1.04,1.46-4.31c3.87-11.45,14.37-19.14,26.12-19.14,9.59,0,18.36,5.02,23.46,13.42l3.67,6.04,4.48-5.46c7.29-8.9,17.93-14,29.2-14,21.07,0,38.22,17.67,38.22,39.39s-17.14,39.39-38.22,39.39h-.14c-.22,0-22.65.64-49.36.64h0Z"/><path class="d" d="m151.22,99.35c18.32,0,33.22,15.43,33.22,34.39s-14.9,34.39-33.22,34.39h-.29c-.22.01-22.58.64-49.22.64-15.62,0-29.61-.21-41.61-.63h-.18s-.18,0-.18,0h-7.54c-12.5,0-22.66-10.56-22.66-23.55s10.17-23.55,22.66-23.55c1.68,0,3.37.2,5.04.59l8.85,2.09,2.91-8.62c3.19-9.42,11.78-15.74,21.38-15.74,7.82,0,15,4.12,19.18,11.02l7.33,12.07,8.95-10.93c6.34-7.73,15.57-12.17,25.34-12.17m0-10c-13.27,0-25.15,6.15-33.07,15.83-5.77-9.5-16.03-15.83-27.73-15.83-14.28,0-26.42,9.42-30.85,22.54-2.36-.56-4.81-.86-7.34-.86-18.04,0-32.66,15.02-32.66,33.55s14.62,33.55,32.66,33.55h7.54c13.68.48,28.41.64,41.96.64,27.1,0,49.5-.64,49.5-.64,23.87,0,43.22-19.87,43.22-44.39s-19.35-44.39-43.22-44.39h0Z"/></svg>