<?xml version="1.0" encoding="utf-8"?>
<!-- Generator: Adobe Illustrator 27.5.0, SVG Export Plug-In . SVG Version: 6.00 Build 0)  -->
<svg version="1.1" baseProfile="tiny" id="Layer_1" xmlns="http://www.w3.org/2000/svg" xmlns:xlink="http://www.w3.org/1999/xlink"
	 x="0px" y="0px" viewBox="0 0 512 512" overflow="visible" xml:space="preserve">
<path fill="#FFFFFF" d="M147.27,451.78c-5.46,24.17-38.07,38.62-38.07,38.62s20.08-24.31,24.48-42c4.4-17.69,3.52-55.6,3.52-55.6
	S155.4,415.8,147.27,451.78z"/>
<g>
	<path fill="#99CCFF" d="M335.31,326.69c0,43.8-35.51,79.31-79.31,79.31s-79.31-35.51-79.31-79.31c0-20.95,28.14-72.34,47.07-120.26
		C244.41,154.15,256,106,256,106s11.59,48.15,32.24,100.43C307.17,254.35,335.31,305.74,335.31,326.69z"/>
	<path fill="#FFFFFF" d="M316.51,350.8c-5.46,24.17-38.07,38.62-38.07,38.62s20.08-24.31,24.48-42c4.4-17.69,3.52-55.6,3.52-55.6
		S324.64,314.82,316.51,350.8z"/>
</g>
</svg>
