<?xml version="1.0" encoding="UTF-8"?><svg id="uuid-261b5938-9c3b-449d-94e9-464aa9907cb6" xmlns="http://www.w3.org/2000/svg" viewBox="0 0 439.82 473.03"><defs><style>.uuid-1406371a-7fd0-4e8f-b90c-4ddb15f214bd{fill:#ffe100;stroke:#fff;stroke-miterlimit:10;stroke-width:20px;}</style></defs><g id="uuid-d4ddb8e7-2aec-4cb2-972e-1c0a4af66d40"><path class="uuid-1406371a-7fd0-4e8f-b90c-4ddb15f214bd" d="m404.18,211.16s-63.91,33.05-71.97,52.52c-8.06,19.47,27.77,86.35,27.77,86.35,0,0-60.99-28.72-78.85-20.73-20.61,9.23-61.87,106.17-61.87,106.17,0,0-10.33-78.09-46.52-91.45-19.77-7.3-85.01,10.9-85.01,10.9,0,0,27-56.25,18.96-74.97-8.6-20.01-77.54-68.8-77.54-68.8,0,0,81.26-4.58,88.8-23.49,8.07-20.24-26.69-106.36-26.69-106.36,0,0,72.01,56.19,90.14,48.18,20.42-9.03,39.71-84.82,39.71-84.82,0,0,16.49,80.4,35.96,88.46,19.47,8.06,84.01-41.93,84.01-41.93,0,0-27.72,75.05-19.66,94.51,8.06,19.47,82.76,25.45,82.76,25.45Z"/><circle class="uuid-1406371a-7fd0-4e8f-b90c-4ddb15f214bd" cx="216.66" cy="236.67" r="114.02"/></g></svg>