<?xml version="1.0" encoding="UTF-8"?><svg id="sunthree" xmlns="http://www.w3.org/2000/svg" viewBox="0 0 439.82 473.03"><defs><style>.sunone{fill:#ffe100;stroke:#fff;stroke-miterlimit:10;stroke-width:20px;}</style></defs><g id="suntwo"><path class="sunone" d="m321.41,185.71c8.06,19.47,82.76,25.45,82.76,25.45,0,0-63.91,33.05-71.97,52.52-8.06,19.47,27.77,86.35,27.77,86.35,0,0-60.99-28.72-78.85-20.73-20.61,9.23-61.87,106.17-61.87,106.17,0,0-10.33-78.09-46.52-91.45-19.77-7.3-85.01,10.9-85.01,10.9,0,0,27-56.25,18.96-74.97-8.6-20.01-77.54-68.8-77.54-68.8,0,0,81.26-4.58,88.8-23.49,8.07-20.24-26.69-106.36-26.69-106.36,0,0,72.01,56.19,90.14,48.18,20.42-9.03,39.71-84.82,39.71-84.82,0,0,16.49,80.4,35.96,88.46,19.47,8.06,84.01-41.93,84.01-41.93,0,0-27.72,75.05-19.66,94.51"/><path class="sunone" d="m319.22,186.78c20.68,42.51,13.37,95.21-21.93,130.52-44.53,44.53-116.72,44.53-161.25,0-44.53-44.53-44.53-116.72,0-161.25,44.53-44.53,116.72-44.53,161.25,0,9.22,9.22,16.53,19.63,21.93,30.73"/></g></svg>