<?xml version="1.0" encoding="UTF-8"?><svg id="uuid-ff21c795-9f66-4bb9-8ccb-3578efc74a49" xmlns="http://www.w3.org/2000/svg" viewBox="0 0 498.51 485"><defs><style>.one{fill:#fff;}.two{fill:#ffe100;stroke-width:25px;}.two,.three{stroke:#fff;stroke-miterlimit:10;}.three{fill:#deffff;}</style></defs><g id="four"><path class="two" d="m256.01,472.5c-61.44,0-119.19-23.92-162.63-67.37-43.44-43.44-67.37-101.2-67.37-162.63s23.92-119.19,67.37-162.63C136.82,36.42,194.58,12.5,256.01,12.5s119.19,23.92,162.63,67.37c43.44,43.44,67.37,101.2,67.37,162.63s-23.92,119.19-67.37,162.63c-43.44,43.44-101.2,67.37-162.63,67.37Z"/><path class="one" d="m231.36,298.99s-.05,0-.07,0c-1.48-37.24-32.12-66.97-69.72-66.97-28.65,0-53.25,17.27-64,41.96-6.53-4.84-14.61-7.7-23.36-7.7-21.69,0-39.28,17.59-39.28,39.28,0,6.27,1.48,12.19,4.09,17.45-22.87,9.2-39.02,31.57-39.02,57.73,0,34.36,27.85,62.21,62.21,62.21h169.14c39.75,0,71.98-32.23,71.98-71.98s-32.23-71.98-71.98-71.98Z"/><path class="three" d="m62.21,422.95c-23.28,0-42.21-18.94-42.21-42.21,0-17.33,10.39-32.7,26.48-39.17l20.07-8.07-9.63-19.38c-1.33-2.67-2-5.55-2-8.55,0-10.63,8.65-19.28,19.28-19.28,4.16,0,8.12,1.3,11.45,3.77l20.2,14.97,10.04-23.05c7.92-18.19,25.85-29.94,45.67-29.94,26.82,0,48.67,20.98,49.73,47.77l.76,19.21h19.46c28.59.09,51.81,23.37,51.81,51.98s-23.32,51.98-51.98,51.98H62.21Z"/><path class="one" d="m275.73,141.58s.03,0,.05,0c1.05-26.51,22.86-47.67,49.63-47.67,20.39,0,37.91,12.29,45.56,29.87,4.65-3.44,10.4-5.48,16.63-5.48,15.44,0,27.96,12.52,27.96,27.96,0,4.46-1.05,8.68-2.91,12.42,16.28,6.55,27.77,22.47,27.77,41.09,0,24.46-19.83,44.29-44.29,44.29h-120.4c-28.3,0-51.24-22.94-51.24-51.24,0-28.3,22.94-51.24,51.24-51.24Z"/><path class="three" d="m275.73,224.05c-17.22,0-31.24-14.01-31.24-31.24s13.91-31.13,31.04-31.24h19.47l.76-19.21c.63-15.96,13.66-28.47,29.64-28.47,11.81,0,22.5,7.01,27.22,17.85l10.04,23.05,20.2-14.96c.96-.71,2.55-1.55,4.72-1.55,4.39,0,7.96,3.57,7.96,7.96,0,1.24-.28,2.43-.82,3.53l-9.62,19.38,20.07,8.07c9.25,3.72,15.24,12.57,15.24,22.54,0,13.39-10.89,24.29-24.29,24.29h-120.4Z"/></g></svg>