<?xml version="1.0" encoding="UTF-8"?><svg id="uuid-c91143e1-6f8d-4ec5-afaf-c959c8f21438" xmlns="http://www.w3.org/2000/svg" viewBox="0 0 430.25 446.99"><defs><style>.uuid-242152b9-d30b-4269-b697-9e8704929463{fill:#ffe100;stroke:#fff;stroke-miterlimit:10;stroke-width:20px;}</style></defs><g id="uuid-0e3a192d-c078-40f0-bc20-b97e5d9751d3"><polygon class="uuid-242152b9-d30b-4269-b697-9e8704929463" points="350.55 224.45 408.23 162.3 320.14 152.06 337.82 59.39 255.03 99.64 215.23 23.08 180.65 101.22 99.26 55.17 114.14 152.38 22.23 167.3 86.48 225 27.23 282.59 115.11 297.97 103.95 392.18 181.31 348.88 214.27 424.38 255.69 349.17 339.51 389.18 321.1 296.5 409.22 285.72 350.55 224.45"/><path class="uuid-242152b9-d30b-4269-b697-9e8704929463" d="m320.79,174.83c20.68,42.51,13.37,95.21-21.93,130.52-44.53,44.53-116.72,44.53-161.25,0-44.53-44.53-44.53-116.72,0-161.25,44.53-44.53,116.72-44.53,161.25,0,9.22,9.22,16.53,19.63,21.93,30.73"/></g></svg>